<svg xmlns="http://www.w3.org/2000/svg" xmlns:xlink="http://www.w3.org/1999/xlink" version="1.1" x="0px" y="0px" viewBox="0 0 512 640" style="enable-background:new 0 0 512 512;" xml:space="preserve"><g><path d="M496.8,254.1c-54-22-102.3-54.1-143.5-95.4c-41.2-41.2-73.3-89.5-95.4-143.5l-1.9-4.5l-1.9,4.5   c-22,54-54.1,102.3-95.4,143.5c-41.2,41.2-89.5,73.3-143.5,95.4l-4.5,1.9l4.5,1.9c54,22,102.3,54.1,143.5,95.4   c41.2,41.2,73.3,89.5,95.4,143.5l1.9,4.5l1.9-4.5c22-54,54.1-102.3,95.4-143.5c41.2-41.2,89.5-73.3,143.5-95.4l4.5-1.9L496.8,254.1   z"/></g><text x="0" y="527" fill="#0B8659" font-size="5px" font-weight="bold" font-family="'Helvetica Neue', Helvetica, Arial-Unicode, Arial, Sans-serif">Created by WiStudio</text><text x="0" y="532" fill="#" font-size="5px" font-weight="bold" font-family="'Helvetica Neue', Helvetica, Arial-Unicode, Arial, Sans-serif">from the Noun Project</text></svg>